<svg id="Layer_2" data-name="Layer 2" xmlns="http://www.w3.org/2000/svg" viewBox="0 0 500.07 500"><title>miky</title><path d="M174.6.52s88.07,90,97.34,99.32,24.21,7.81,32.45-.52L395.55,7.24c7.21-7.28,17.27-8,25.23-1.56,5.15,4.16,4.39,21.37,4.39,21.37s-2.33,268.26-2.33,282.44c0,16.65,34,55.15,55.62,55.15s20.6,9.36,20.6,14.56,5.15,17.69-17.51,17.69S393,361.52,393,319.9s-1-218.5-1-236.18-12.87-15.09-22.66-5.21l-69,69.71c-7.73,7.81-17.51,7.29-24.72,0s-59.23-62.94-68-71.79S188,67.07,188,79.55v74.92c0,7.28,98.63,48.9,97.85,129-1,106.13-90.64,113.41-112.28,113.41s-21.11-10.4-21.11-21.33-.52-96.24-.52-112.89S155,232.5,169.45,232.5,188,239.78,188,260.59v76c0,9.36,7.21,21.33,21.11,21.33s40.69-24.46,41.72-73.36C252.14,222.1,197.27,194,161.21,194S41.73,235.62,41.73,314.7s68,154,147.3,154,129.78-49.94,129.78-115.49c0-13.52,7.6-27.05,17.51-27.05,16.48,0,17.51,18.21,17.51,29.13S346.62,494.7,193.15,499.9C79.91,503.74,12.89,399,12.89,315.74s71.84-136,98.88-142.54C137.52,167,153,156.55,153,137.82V52.5L134.43,33.77h-69c-18.54,0-35,26-35,47.87s18.54,48.9,45.32,48.9c11.33,0,15.45,7.28,15.45,15.6s-7.21,14.05-19,14.05S-.5,142.5-.5,82.68,45.85,0,68,0,174.6.52,174.6.52Z" transform="translate(0.5 0)"/></svg>